inDegrees=no
num_controls=7
num_derivatives=13
num_iterations=128
num_multipliers=7
num_parameters=0
num_slacks=7
num_states=26
objective=0.542255
objective_accelerations=0.065599
objective_balance=0.003416
objective_effort=0.048621
objective_height=0.415524
objective_ligament=0.009096
solver_duration=1303.635673
status=Solve_Succeeded
success=true
DataType=double
version=3
OpenSimVersion=4.5
endheader
time	/jointset/ground_pelvis/pelvis_tilt/value	/jointset/ground_pelvis/pelvis_tx/value	/jointset/ground_pelvis/pelvis_ty/value	/jointset/hip_r/hip_flexion_r/value	/jointset/hip_r/hip_adduction_r/value	/jointset/hip_r/hip_rotation_r/value	/jointset/back/lumbar_extension/value	/jointset/patellofemoral_r/patellar_flexion_r/value	/jointset/knee_r/knee_flexion_r/value	/jointset/knee_r/knee_adduction_r/value	/jointset/knee_r/knee_rotation_r/value	/jointset/ankle_r/ankle_angle_r/value	/jointset/subtalar_r/subtalar_angle_r/value	/jointset/ground_pelvis/pelvis_tilt/speed	/jointset/ground_pelvis/pelvis_tx/speed	/jointset/ground_pelvis/pelvis_ty/speed	/jointset/hip_r/hip_flexion_r/speed	/jointset/hip_r/hip_adduction_r/speed	/jointset/hip_r/hip_rotation_r/speed	/jointset/back/lumbar_extension/speed	/jointset/patellofemoral_r/patellar_flexion_r/speed	/jointset/knee_r/knee_flexion_r/speed	/jointset/knee_r/knee_adduction_r/speed	/jointset/knee_r/knee_rotation_r/speed	/jointset/ankle_r/ankle_angle_r/speed	/jointset/subtalar_r/subtalar_angle_r/speed	/forceset/tau_hip_flexion_r	/forceset/tau_hip_adduction_r	/forceset/tau_hip_rotation_r	/forceset/tau_knee_flexion_r	/forceset/tau_ankle_angle_r	/forceset/tau_subtalar_angle_r	/forceset/tau_lumbar_extension	lambda_cid13_p0	lambda_cid14_p0	lambda_cid14_p1	lambda_cid14_p2	lambda_cid14_p3	lambda_cid14_p4	lambda_cid14_p5	/jointset/ground_pelvis/pelvis_tilt/accel	/jointset/ground_pelvis/pelvis_tx/accel	/jointset/ground_pelvis/pelvis_ty/accel	/jointset/hip_r/hip_flexion_r/accel	/jointset/hip_r/hip_adduction_r/accel	/jointset/hip_r/hip_rotation_r/accel	/jointset/back/lumbar_extension/accel	/jointset/patellofemoral_r/patellar_flexion_r/accel	/jointset/knee_r/knee_flexion_r/accel	/jointset/knee_r/knee_adduction_r/accel	/jointset/knee_r/knee_rotation_r/accel	/jointset/ankle_r/ankle_angle_r/accel	/jointset/subtalar_r/subtalar_angle_r/accel	gamma_cid13_p0	gamma_cid14_p0	gamma_cid14_p1	gamma_cid14_p2	gamma_cid14_p3	gamma_cid14_p4	gamma_cid14_p5
0	-0.00636576990904966	0.09619818189896341	0.942722933047738	0.1762555222360518	-0.2321939554145592	-0.2605541083024768	-0.038598046466844	0.07317863873451264	0.07317863873451017	0.1745325190938601	0.1734939677149764	0.03247278518263602	-0.003511014897621744	0	0	0	0	0	0	0	0	0	0	0	0	0	0.2322641950750515	-0.1569755235078054	-0.04272834746210786	-0.3979586272097655	0.3757209690016231	-0.1441906126343556	-0.130919099550504	-39.04625584964686	70.82067121003914	-40.43012064310678	-4.278813787647784	-20.57043694974952	-675.2811520769454	55.6020297884759	-2.825048726229095	-1.63641841639638	-0.7847394874542499	11.7881982609334	0.2957742095857809	2.930480031055224	-5.469787738182639	11.46486928971387	11.46486928971379	-3.673455113037461	0.2931270159871373	3.524661608576632	1.101802784070046	1.487912113602772e-07	7.976611663529767e-08	-1.009039395431889e-06	3.068086948572738e-07	5.407338736919166e-08	4.441578602568374e-08	-4.946494091922251e-07
0.01	-0.006498426536394471	0.09611820978447011	0.942685204282626	0.1768256071710969	-0.2321777682889542	-0.2603981020829601	-0.03887517769517418	0.07373589462345777	0.0737358946234541	0.1743492150077912	0.1734946521125917	0.03264551097555241	-0.003455370650719579	-0.02642960979362041	-0.0158476151878955	-0.007530264877530084	0.1134314306911649	0.003169382444721114	0.03100501036719875	-0.05502118582931757	0.1109788939912306	0.110978893991238	-0.03637043280676967	0.0001906723009411282	0.03447374865151717	0.01104332758396507	0.2289808884982454	-0.1678762154128253	-0.04217627096945743	-0.3966930016875139	0.3736051858002626	-0.1330563576904353	-0.1277551414019999	-39.06490483908291	70.58995364304045	-35.70837270013108	-4.947680496670563	-21.79362080598843	-675.7566833110984	64.76729548292279	-2.536652109603438	-1.536901098897593	-0.7348378830095057	11.03278963658279	0.3172089095148231	3.15615254408279	-5.457525029698959	10.84352712601904	10.84352712602013	-3.575406707897322	-0.1098026518002718	3.398045710752021	1.092645795768818	1.960376741226383e-07	8.354237851444267e-08	-1.319099227390711e-06	2.914761194229938e-07	9.841759317915176e-08	-2.100438112791739e-07	-5.678659520473876e-07
0.02	-0.006892326262412887	0.09588416791231534	0.9425726392897176	0.1785124412457262	-0.2321319496093816	-0.2599379175588635	-0.03969036898667598	0.07538876498674876	0.07538876498674843	0.1738108927249726	0.1734988752354366	0.03316083709844673	-0.0032918835179359	-0.05224861973422822	-0.03081395153229358	-0.01496724555932313	0.2233498279173201	0.005926310793425749	0.06083566091562013	-0.1076120126343312	0.2191228948701169	0.2191228948701293	-0.07100363934956365	0.0007077450439671459	0.06852006599554401	0.0215685771762934	0.2256975819214361	-0.1787769073178492	-0.04162419447677222	-0.3954273761652715	0.3714894025988999	-0.1219221027465202	-0.1245911832534951	-39.12001740949356	70.46262091117683	-30.99470700682848	-5.585345613427882	-23.20150786921557	-674.615953861385	73.63893322969264	-2.702928755626509	-1.460162647696969	-0.7660826483068399	11.08559156793145	0.2132833903824956	2.695608067299742	-4.983715933321814	10.89789066724502	10.89789066724446	-3.326009860242347	0.3584071044041214	3.439175347078486	0.9981871857426903	2.432841368849994e-07	8.731864039358766e-08	-1.629159059349533e-06	2.761435439887137e-07	1.427617989891119e-07	-4.645034085840316e-07	-6.4108249490255e-07
0.03	-0.007541714510836671	0.09550383082351109	0.9423857628045477	0.1812828227776321	-0.2320605619852929	-0.259187544219945	-0.04101918967941731	0.0781097215561148	0.07810972155611641	0.1729350713818239	0.1735117818774364	0.03401333480375531	-0.003025878288928319	-0.07749603957738881	-0.04520770838372584	-0.02242069390381811	0.3302285632237081	0.0083105420180385	0.08909430827648791	-0.1578024271082345	0.3245712472914594	0.3245712472914433	-0.1038976116463093	0.00181954819993556	0.101777141321444	0.03154747830653181	0.2180920950347721	-0.1839848952964726	-0.03951411832573403	-0.38627860537756	0.3563885566419423	-0.1107889957727419	-0.1186731911883281	-39.21010411045253	66.11678178483015	-27.01350689484105	-6.113849950034179	-20.77640133279683	-673.4698652797231	80.32654170901078	-2.415675090556709	-1.422089795810017	-0.7369662206929306	10.4143423395908	0.244697672098344	2.869373389562054	-4.984249383463504	10.29368292504745	10.29368292504354	-3.231868650235519	-0.02042806176184602	3.238671490957537	0.9847668022972044	2.764322863513515e-07	9.538468758437626e-08	-1.834202255170421e-06	3.309661993346126e-07	1.682982344406694e-07	-6.071191687205161e-07	-7.494326922800527e-07
